<?xml version="1.0" encoding="UTF-8"?>
<svg width="166" height="155.3" version="1.1" viewBox="0 0 166 155.3" xmlns="http://www.w3.org/2000/svg">
 <defs>
  <linearGradient id="a" x1="83" x2="83" y1="0" y2="155.3" gradientUnits="userSpaceOnUse">
   <stop stop-color="#76b3e1" offset="0"/>
   <stop stop-color="#2F5D9B" offset="1"/>
  </linearGradient>
 </defs>
 <path d="m162.2 31.3c-3.7-12.9-16.7-20.5-29.5-16.8l-97.6 28.2c-12.9 3.7-20.5 16.7-16.8 29.5l28.2 97.6c3.7 12.9 16.7 20.5 29.5 16.8l97.6-28.2c12.9-3.7 20.5-16.7 16.8-29.5z" fill="url(#a)"/>
 <path d="m103.9 75.5c-2.1-7.2-10-11.4-17.2-9.3l-45.8 13.2c-7.2 2.1-11.4 10-9.3 17.2l13.2 45.8c2.1 7.2 10 11.4 17.2 9.3l45.8-13.2c7.2-2.1 11.4-10 9.3-17.2z" fill="#fff"/>
</svg>